# xmcd CD database file
#
# Track frame offsets:
#	150
#	17132
#	32652
#	61607
#	79352
#	99057
#	125082
#	142425
#	155570
#	172145
#	195152
#	213107
#
# Disc length: 3305 seconds
#
# Revision: 5
# Processed by: cddbd v1.5.2PL0 Copyright (c) Steve Scherf et al.
# Submitted via: CDex 1.51
#
DISCID=a00ce70c
DTITLE=Peter Green Splinter Group - Peter Green Splinter Group
DYEAR=1997
DGENRE=Blues Rock
TTITLE0=Hitch Hiking Woman
TTITLE1=Travelling Riverside Blues
TTITLE2=Look On Yonder Wall
TTITLE3=Homework
TTITLE4=The Stumble
TTITLE5=Help Me
TTITLE6=Watch Your Step
TTITLE7=From 4' till Late
TTITLE8=Steady Rollin' Man
TTITLE9=It Takes Time
TTITLE10=Dark End Of The Street
TTITLE11=Going Down
EXTD=YEAR: 1997
EXTT0=
EXTT1=
EXTT2=
EXTT3=
EXTT4=
EXTT5=
EXTT6=
EXTT7=
EXTT8=
EXTT9=
EXTT10=
EXTT11=
PLAYORDER=
